<!-- Generator: Adobe Illustrator 24.2.1, SVG Export Plug-In  -->
<svg version="1.1" xmlns="http://www.w3.org/2000/svg" xmlns:xlink="http://www.w3.org/1999/xlink" x="0px" y="0px" width="544.2px"
     height="544.2px" viewBox="0 0 544.2 544.2" style="overflow:visible;enable-background:new 0 0 544.2 544.2;"
     xml:space="preserve">
<defs>
</defs>
<g>
    <path style="fill:#5E23A0;" d="M272.1,0C2.1,0,0,121.8,0,272.1s2.1,272.1,272.1,272.1s272.1-121.8,272.1-272.1S542.1,0,272.1,0z"/>
    <g>
        <path id="Shape_1_" style="fill:#FFFFFF;" d="M192.7,402.8c0,8.7-5.3,16.6-13.3,19.9c-8.1,3.3-17.3,1.5-23.5-4.7
            c-6.2-6.2-8-15.4-4.7-23.5c3.3-8.1,11.2-13.3,19.9-13.3C183.1,381.2,192.7,390.8,192.7,402.8z M238.5,381.2
            c-8.7,0-16.6,5.3-19.9,13.3s-1.5,17.3,4.7,23.5c6.2,6.2,15.4,8,23.5,4.7c8.1-3.3,13.3-11.2,13.3-19.9c0-5.7-2.3-11.2-6.3-15.3
            C249.6,383.4,244.1,381.2,238.5,381.2L238.5,381.2z M305.8,381.2c-8.7,0-16.6,5.3-19.9,13.3s-1.5,17.3,4.7,23.5
            c6.2,6.2,15.4,8,23.5,4.7c8.1-3.3,13.3-11.2,13.3-19.9c0-5.7-2.3-11.2-6.3-15.3C316.9,383.4,311.4,381.2,305.8,381.2L305.8,381.2z
             M373,381.2c-8.7,0-16.6,5.3-19.9,13.3c-3.3,8.1-1.5,17.3,4.7,23.5c6.2,6.2,15.4,8,23.5,4.7c8.1-3.3,13.3-11.2,13.3-19.9
            c0-5.7-2.3-11.2-6.3-15.3C384.2,383.4,378.7,381.2,373,381.2L373,381.2z M338.3,338H205.4c-12.7,0-23-10.3-23.1-23.1l0.4-83.8
            c0-10.7,7.3-20,17.6-22.5v-16.1l0,0v-1.4c0-19.3,7.8-37.7,21.6-51.1c13.4-13,31.3-20.3,49.9-20.2h1.6
            c38.1,1.1,69.2,33.7,69.2,72.7v15.9c10.9,2.1,18.8,11.6,18.8,22.7l-0.4,83.8C361.2,327.6,351,337.9,338.3,338z M293.6,271.4
            c0-11.9-9.7-21.5-21.6-21.5c-11.9,0-21.5,9.7-21.5,21.6c0,11.9,9.7,21.6,21.6,21.6c5.7,0,11.2-2.3,15.2-6.3
            C291.3,282.7,293.6,277.2,293.6,271.4L293.6,271.4z M302.8,192.2c0.2-16.1-11.6-29.8-27.6-31.9c-1.2-0.1-2.4-0.2-3.7-0.2
            c-7.6,0-14.9,2.8-20.6,7.9c-6.6,5.9-10.4,14.3-10.4,23.1v17h62.2V192.2z"/>
    </g>
</g>
</svg>
