<?xml version="1.0" encoding="UTF-8"?>
<svg width="512px" height="512px" viewBox="0 0 512 512" version="1.1" xmlns="http://www.w3.org/2000/svg" xmlns:xlink="http://www.w3.org/1999/xlink">
    <!-- Generator: Sketch 47.1 (45422) - http://www.bohemiancoding.com/sketch -->
    <title>icon</title>
    <desc>Created with Sketch.</desc>
    <defs></defs>
    <g id="Page-1" stroke="none" stroke-width="1" fill="none" fill-rule="evenodd">
        <g id="icon">
            <g>
                <circle id="Oval-Copy" fill="#5E23A0" cx="256" cy="256" r="256"></circle>
                <path d="M184.237108,373.515017 C184.237108,381.359844 179.511498,388.432219 172.263823,391.434304 C165.016149,394.436389 156.673714,392.776976 151.126584,387.229845 C145.579454,381.682715 143.92004,373.340281 146.922125,366.092606 C149.924211,358.844931 156.996585,354.119321 164.841412,354.119321 C175.553359,354.119321 184.237108,362.80307 184.237108,373.515017 Z M225.367393,354.119321 C217.522566,354.119321 210.450191,358.844931 207.448106,366.092606 C204.446021,373.340281 206.105434,381.682715 211.652564,387.229845 C217.199695,392.776976 225.542129,394.436389 232.789804,391.434304 C240.037479,388.432219 244.763089,381.359844 244.763089,373.515017 C244.763139,368.356099 242.707927,363.409715 239.052001,359.769847 C235.396074,356.129979 230.440692,354.096561 225.281823,354.119321 L225.367393,354.119321 Z M285.893373,354.119321 C278.048546,354.119321 270.976172,358.844931 267.974087,366.092606 C264.972001,373.340281 266.631415,381.682715 272.178545,387.229845 C277.725675,392.776976 286.06811,394.436389 293.315785,391.434304 C300.563459,388.432219 305.289069,381.359844 305.289069,373.515017 C305.289119,368.356099 303.233908,363.409715 299.577981,359.769847 C295.922055,356.129979 290.966672,354.096561 285.807804,354.119321 L285.893373,354.119321 Z M346.419354,354.119321 C338.574527,354.119321 331.502152,358.844931 328.500067,366.092606 C325.497982,373.340281 327.157395,381.682715 332.704526,387.229845 C338.251656,392.776976 346.59409,394.436389 353.841765,391.434304 C361.08944,388.432219 365.81505,381.359844 365.81505,373.515017 C365.8151,368.356099 363.759889,363.409715 360.103962,359.769847 C356.448035,356.129979 351.492653,354.096561 346.333784,354.119321 L346.419354,354.119321 Z M315.158056,315.299406 L195.646341,315.299406 C184.200523,315.283695 174.925772,306.008943 174.91006,294.563126 L175.309383,219.205142 C175.285353,209.602604 181.839952,201.232522 191.168217,198.953754 L191.168217,184.435505 L191.168217,184.435505 L191.168217,183.209012 C191.124181,165.890455 198.150198,149.304108 210.620959,137.28685 C222.642884,125.584543 238.767766,119.052686 255.544814,119.089123 L256.999491,119.089123 C291.22719,120.058908 319.265379,149.40916 319.265379,184.492551 L319.265379,198.754092 C329.071463,200.604623 336.174449,209.168932 336.179567,219.148096 L335.780244,294.506079 C335.796205,305.929821 326.581539,315.220958 315.158056,315.299406 Z M274.94051,255.400934 C274.924762,244.692714 266.234053,236.023276 255.525826,236.03377 C244.8176,236.044264 236.1439,244.73072 236.149141,255.43895 C236.154382,266.147181 244.836582,274.825141 255.544814,274.825153 C260.688872,274.825153 265.622243,272.781683 269.259642,269.144285 C272.89704,265.506886 274.94051,260.573515 274.94051,255.429457 L274.94051,255.400934 Z M283.212203,184.093228 C283.421733,169.616737 272.752467,157.279632 258.397122,155.399007 C257.298992,155.268817 256.194261,155.202152 255.088444,155.199346 C248.246635,155.19552 241.648118,157.737322 236.576964,162.330116 C230.650996,167.630452 227.2596,175.201459 227.249916,183.151966 L227.249916,198.440338 L283.212203,198.440338 L283.212203,184.093228 Z" id="Shape" fill="#FFFFFF" fill-rule="nonzero"></path>
            </g>
        </g>
    </g>
</svg>